<?xml version="1.0" encoding="UTF-8"?>
<svg version="1.1" xmlns="http://www.w3.org/2000/svg" width="100" height="100">
<path d="M0 0 C11.29866337 7.67841981 19.39230629 17.72553723 23 31 C24.55924255 46.25048637 22.61798954 58.23411359 13.140625 70.5546875 C6.77279254 77.82889027 -3.38646935 84.22157624 -13.17773438 85.22265625 C-27.67355051 85.90787005 -38.62433065 84.58878323 -50 75 C-51.010625 74.2575 -52.02125 73.515 -53.0625 72.75 C-60.59898025 66.30189428 -66.18044176 56.64028989 -67.23925781 46.76953125 C-68.2891804 32.01196014 -66.20270651 19.72681126 -56.2265625 8.21875 C-41.57763456 -6.37877819 -18.29677305 -10.60325123 0 0 Z " fill="#70BEFD" transform="translate(73,11)"/>
<path d="M0 0 C11.29866337 7.67841981 19.39230629 17.72553723 23 31 C24.55924255 46.25048637 22.61798954 58.23411359 13.140625 70.5546875 C6.77279254 77.82889027 -3.38646935 84.22157624 -13.17773438 85.22265625 C-27.67355051 85.90787005 -38.62433065 84.58878323 -50 75 C-51.010625 74.2575 -52.02125 73.515 -53.0625 72.75 C-60.59898025 66.30189428 -66.18044176 56.64028989 -67.23925781 46.76953125 C-68.2891804 32.01196014 -66.20270651 19.72681126 -56.2265625 8.21875 C-41.57763456 -6.37877819 -18.29677305 -10.60325123 0 0 Z M-53 13 C-55.38912275 16.17707867 -57.25900729 19.43182682 -59 23 C-59.33902344 23.64582031 -59.67804687 24.29164062 -60.02734375 24.95703125 C-64.3090667 34.32946627 -62.34526142 44.80664706 -59.140625 54.18359375 C-57.75303589 57.60979837 -56.30670633 60.11661709 -54 63 C-53.1646875 64.2375 -53.1646875 64.2375 -52.3125 65.5 C-45.45564646 72.91281463 -36.11392247 77.32340411 -26.125 78.2734375 C-14.65093079 78.64634475 -4.73860747 75.42346862 4.0703125 67.9375 C11.35869042 60.61961447 16.14037845 50.83416724 16.375 40.4375 C15.84655208 28.45366489 12.52839467 18.72222182 4 10 C-4.99417169 2.46076785 -16.1339332 -0.87730189 -27.8046875 -0.44140625 C-37.61613741 0.91396519 -46.12822486 5.98123501 -53 13 Z " fill="#E8E8E9" transform="translate(73,11)"/>
<path d="M0 0 C1.74216797 0.04060547 1.74216797 0.04060547 3.51953125 0.08203125 C4.39996094 0.11683594 5.28039062 0.15164062 6.1875 0.1875 C6.1875 2.8275 6.1875 5.4675 6.1875 8.1875 C5.54941406 8.30867188 4.91132812 8.42984375 4.25390625 8.5546875 C3.42761719 8.72226562 2.60132812 8.88984375 1.75 9.0625 C0.51443359 9.30613281 0.51443359 9.30613281 -0.74609375 9.5546875 C-1.42800781 9.76351562 -2.10992187 9.97234375 -2.8125 10.1875 C-3.96064997 12.48379994 -4.12019809 14.26448086 -4.375 16.8125 C-4.519375 18.25625 -4.66375 19.7 -4.8125 21.1875 C-1.1825 21.1875 2.4475 21.1875 6.1875 21.1875 C5.5275 24.1575 4.8675 27.1275 4.1875 30.1875 C1.2175 30.1875 -1.7525 30.1875 -4.8125 30.1875 C-4.8125 39.0975 -4.8125 48.0075 -4.8125 57.1875 C-8.1125 57.1875 -11.4125 57.1875 -14.8125 57.1875 C-14.8125 48.2775 -14.8125 39.3675 -14.8125 30.1875 C-17.7825 30.1875 -20.7525 30.1875 -23.8125 30.1875 C-23.8125 27.2175 -23.8125 24.2475 -23.8125 21.1875 C-20.8425 21.1875 -17.8725 21.1875 -14.8125 21.1875 C-14.86470703 20.11822266 -14.86470703 20.11822266 -14.91796875 19.02734375 C-15.09043961 12.92516039 -15.00387592 8.46977738 -11.8125 3.1875 C-7.84646286 0.14923226 -4.92845074 -0.14934699 0 0 Z " fill="#FDFEFE" transform="translate(58.8125,28.8125)"/>
<path d="M0 0 C1.52734375 0.984375 1.52734375 0.984375 4.02734375 2.984375 C4.85234375 3.54125 5.67734375 4.098125 6.52734375 4.671875 C13.68669341 11.29427344 18.21973194 20.29303323 19.02734375 29.984375 C19.10339844 30.78617188 19.17945312 31.58796875 19.2578125 32.4140625 C19.83164335 43.11523246 15.8692313 52.93012802 8.96484375 61.0546875 C1.24426461 68.74413527 -8.64999169 73.12768136 -19.53515625 73.421875 C-28.98528667 73.08596989 -36.31401631 70.4400803 -43.97265625 64.984375 C-44.83890625 64.406875 -45.70515625 63.829375 -46.59765625 63.234375 C-55.16686857 55.11617386 -59.01877848 44.0752653 -59.53515625 32.421875 C-59.15319301 21.86695746 -54.34335458 12.44405561 -46.97265625 4.984375 C-33.0214444 -6.62864492 -16.26793714 -8.3755716 0 0 Z M-48.3671875 10.95703125 C-55.31194788 19.72669217 -56.73718625 29.0863474 -55.97265625 39.984375 C-54.08867363 49.47846065 -48.52960334 57.99997181 -40.97265625 63.984375 C-31.72051092 69.58778696 -22.23175315 71.62328954 -11.47265625 69.48828125 C-2.14079347 66.62067758 6.43042657 60.92347081 11.5390625 52.48828125 C16.13724936 43.62129054 17.87288962 33.98406192 15.2734375 24.125 C10.93790367 12.90361831 4.19754211 5.08421737 -6.640625 -0.0703125 C-21.71135192 -6.17938439 -37.61556854 -0.28665265 -48.3671875 10.95703125 Z " fill="#494679" transform="translate(69.97265625,16.015625)"/>
<path d="M0 0 C6.36166842 6.80040417 7.54866696 14.87134438 7.4375 23.875 C7.42847656 24.75341553 7.41945313 25.63183105 7.41015625 26.53686523 C7.09196254 38.4790728 2.86233167 47.01857733 -5 56 C-13.92311342 64.33515633 -24.59353396 68.39653363 -36.6875 68.375 C-37.5736499 68.37411377 -38.4597998 68.37322754 -39.37280273 68.37231445 C-46.66999115 68.24068309 -54.17823024 67.51938798 -59.77734375 62.36328125 C-60.18082031 61.91339844 -60.58429687 61.46351562 -61 61 C-59.68 61 -58.36 61 -57 61 C-57 61.66 -57 62.32 -57 63 C-44.63949631 66.59578289 -30.70051753 66.72399419 -19 61 C-7.60812287 54.4533167 -1.7676739 46.23603394 3.125 34.2421875 C4.22969244 30.14890746 4.29931221 26.40633541 4.25 22.1875 C4.24613281 21.39230957 4.24226563 20.59711914 4.23828125 19.77783203 C4.15708245 14.27322978 3.57043298 9.3002113 2 4 C1.34 4 0.68 4 0 4 C0 2.68 0 1.36 0 0 Z " fill="#060606" transform="translate(89,28)"/>
<path d="M0 0 C0.66 0.33 1.32 0.66 2 1 C-1.50222763 6.11672973 -4.58627581 9.90644332 -10 13 C-10 8.83248505 -7.76127698 6.85829482 -5 4 C-3.36927384 2.62294236 -1.7133562 1.27277889 0 0 Z " fill="#504D7E" transform="translate(28,17)"/>
</svg>
